<?xml version="1.0" encoding="UTF-8"?>
<svg id="Capa_2" data-name="Capa 2" xmlns="http://www.w3.org/2000/svg" xmlns:xlink="http://www.w3.org/1999/xlink" viewBox="0 0 122.42 151.78">
  <defs>
    <style>
      .cls-1 {
        fill: url(#linear-gradient);
      }

      .cls-2 {
        fill: #fff;
      }
    </style>
    <linearGradient id="linear-gradient" x1="61.21" y1="33.39" x2="61.21" y2="141.59" gradientUnits="userSpaceOnUse">
      <stop offset="0" stop-color="#e40825"/>
      <stop offset="1" stop-color="#6e1b4c"/>
    </linearGradient>
  </defs>
  <g id="Capa_1-2" data-name="Capa 1">
    <g>
      <rect class="cls-2" x="41.85" y="50.69" width="38.77" height="18.63"/>
      <path class="cls-1" d="M122.36,38.18C103.13,26.12,61.35,0,61.35,0c0,0-42.06,26.12-61.29,38.18C.13,63.63-.11,89.08.06,114.52c20.22,12.41,61.1,37.29,61.15,37.26.05.03,40.93-24.85,61.15-37.26.17-25.44-.07-50.89,0-76.34ZM43.53,58.98c6.04,1.23,7.39.51,8.66,2.82-5.49.01-6.04-.26-8.66-2.82ZM115.25,110.3c-.36,0-33.88-7.8-33.88-22.01,1.6-1.8,5.42-1.73,7.36-.73,3.75,1.93,5.31,8.56,16.05,3.07-3.89.46-6.26.16-8.68-1.53-2.2-1.4-2.65-4.47-4.78-5.96-4.2-2.94-6.92-.71-11.63-1,.45-.69,7.21-2.2,9.89-4.97,1.49-1.54,2.44-3.35,3.37-5.17,4.37-1.28,5.48,8.52,13.19,9.84,3.38.58,6.98-.47,8.48-3.49-2.57,1.88-4.18,2.39-6.98,1.48-6.11-1.7-3.31-11.22-12.7-13.46.86-1.49,1.77-3.1,3.41-3.84,2.86-1.56,7.76-.59,10.79-.12-2.87-2.25-7.9-4.14-11.72-3.31-3.3.69-5.38,3-6.88,5.76-2.63-.46-4.29-.79-6.95-.4,1.44-1.76,2.05-2.69,2.25-4.96.6-6.61,3.16-6.76,6.46-7.06-1.95-1.35-7.75-2.15-10.67-.3.6-7.15.62-13.48-2.56-20.11-2.39-5.26-7.41-9.15-13.07-10.28-1.52-.33-3.09-.51-4.67-.56h0s-.1,0-.14,0c-.05,0-.1,0-.14,0h0c-1.58.06-3.16.25-4.67.58-5.66,1.13-10.67,5.02-13.07,10.28-3.19,6.63-3.16,12.96-2.56,20.11-2.92-1.85-8.72-1.05-10.67.3,3.31.3,5.86.45,6.46,7.06.21,2.27.82,3.2,2.25,4.96-2.65-.39-4.31-.06-6.95.4-1.5-2.77-3.58-5.08-6.88-5.76-3.82-.84-8.85,1.05-11.72,3.31,3.04-.46,7.94-1.43,10.79.12,1.64.74,2.54,2.36,3.41,3.84-9.39,2.24-6.59,11.76-12.7,13.46-2.81.9-4.41.4-6.98-1.48,1.51,3.02,5.1,4.07,8.48,3.49,7.71-1.32,8.82-11.12,13.19-9.84.92,1.82,1.88,3.63,3.37,5.17,2.68,2.77,9.44,4.29,9.89,4.97-4.71.29-7.43-1.94-11.63,1-2.13,1.49-2.58,4.56-4.78,5.96-2.41,1.7-4.78,1.99-8.68,1.53,10.74,5.49,12.3-1.14,16.05-3.07,1.95-1,5.76-1.08,7.36.73-.19,13.5-33.52,22.01-33.88,22.01-.22-21.56,0-67.98,0-67.94,1.3-1.23,51.07-32.16,54.04-33.84,2.97,1.68,52.74,32.61,54.04,33.84,0-.04.22,46.38,0,67.94ZM80.62,72.52c2.42-1.01,5.26-1.44,7.86-1.48-2.15,3.08-4.54,2.89-7.9,3.38.01-.97-.06-1.82.04-1.9ZM41.84,74.42c-3.36-.48-5.75-.3-7.9-3.38,2.6.04,5.44.47,7.86,1.48.09.08.02.92.04,1.9ZM68.87,61.81c1.28-2.31,2.63-1.59,8.66-2.82-2.63,2.57-3.17,2.83-8.66,2.82Z"/>
    </g>
  </g>
</svg>