<?xml version="1.0" encoding="UTF-8"?>
<svg id="Capa_1" xmlns="http://www.w3.org/2000/svg" version="1.1" viewBox="0 0 734.7 503.3">
  <!-- Generator: Adobe Illustrator 30.3.0, SVG Export Plug-In . SVG Version: 2.1.3 Build 182)  -->
  <g id="Layer_1">
    <g id="Unknown">
      <path d="M244,317.3h.2c0,.6-.6,2.7-1.8,6.2,0,.3,0,1.1-.3,2.4,0,0,.2.2.4.6-.3,1.1-.5,2.1-.6,3h0l.3-.2c.1,0,.2.1.3,0v.3c-1.3,3.8-2,6.1-2,6.9,0,0,.2.1.4.4v.3c-.6,2.1-1,3.6-1,4.7.1.8.2,1.4.2,1.6-.2,1.2-.4,1.9-.5,2.1,0,.8.1,1.4.1,1.9v.7c0,.4-.6,1.3-1.9,2.6,0,1.8-.9,5.9-2.7,12.3-.5,1.4-1.5,3.1-2.8,5-.7.7-1.5,2.1-2.3,4.3-1.3,1.7-3.6,3.1-6.9,4.3l-1.3.2c-5.1.7-8.8-.5-11-3.8-2-2.5-3.2-5.2-3.6-8,0-1.3,0-2.3.1-3.1v-1.5c.1-2.6.2-4.9.2-6.9,0-3,1.4-6.7,4-11,.5-1.2,1.1-2.9,1.7-5.1,0-.5-.1-.9-.1-1.3v-.3c.3-1.1.5-1.9.5-2.3.2-.1.3-.4.4-.8v-1.3c0-.9.5-1.6,1.3-2.1.6-.8,1.3-1.4,2.3-1.9.8-1.1,1.5-1.8,2.3-1.9.3.2.8.4,1.4.4.2-.4.5-.8.9-1.1.2,0,.3.3.3.7v.3h.3c1-1.8,1.8-2.7,2.2-2.8h0c0,.8-.4,2.2-1.3,4.2-.2.9-.2,1.4-.2,1.7s0,.9.2,1.4c0,.6-.8,2.3-2.3,5.1-.2.2-.3,1.2-.4,3-.5,0-1.1,1.3-1.8,3.8,0,1.1-1,4.9-2.9,11.4,0,.2-.3.9-.8,2-.3,1.4-.6,3.3-.8,5.8,0,.3.3,1.7,1,4.2v.6c0,.2,0,.5-.2,1l.6-.2c.3.3.5.4.6.4.4-.5.8-.7,1-.7h.1c.1,0,.2,0,.2.2s0,.4-.1.9c0,.9.9,1.2,2.7.9h.1c.4-.3.7-1,.9-2,.6-1.3,1.3-2.3,2.3-3,.9-1.6,1.3-2.6,1.3-2.9v-1.3c.3-1.6.7-2.4,1.3-2.5s.6-1.3.8-3.7c.3-.6.5-1.9.7-3.9.5-.8,1.1-2.3,1.5-4.7.2-.4.8-1.1,1.6-2,.5-1.5.7-2.8.7-3.9v-.5c0-.2-.1-.5-.3-1,.9-2.2,1.6-3.9,2-5.1,1.2-.8,1.9-1.9,2.2-3.1,0-.6.4-1.4,1.1-2.1,0-.7.3-1.1.8-1.4.6,0,1.6-1.9,2.8-5.4h.3v.5c0,.6-.3,1.4-.6,2.7h0c0,.1.1.1.1.1.5-1.1,1.1-2.5,1.9-4.3.3,0,.6-.7.8-1.9l.5-.4.6.3ZM216.3,353.2c0,.2,0,.3-.1.5h.3v-.5h-.2ZM220.9,322.4c.8-.1,1.2.1,1.2.8s-.4,1-1.1,1.1h-.2c-.2-.5-.3-1-.3-1.4s.2-.4.4-.5M222.6,333.3h.1v-.2h-.1v.2ZM224.8,320.9h.6v.5c.1,0,.1.2.1.2l-.6.2h-.2v-.5h-.1c0-.3.1-.4.2-.4" fill="#c40606"/>
      <path d="M285.5,292.8l.2,1c-.6,4-1.1,6.8-1.5,8.5,0,1.2.1,2.1.1,3-.4,1.6-.5,2.8-.6,3.6v.5l.6,2.5c-.7,5.3-1.1,8.5-1.1,9.7h0c0,.1.1,0,.1,0,.3-.5.4-.7.4-.8h.1c.2,0,.3,0,.3.2-.7,4.4-1.5,8.1-2.5,11.3-1.8,7.1-2.6,11-2.6,11.4s.1,1,.3,2c-.9,3.7-1.3,5.7-1.3,6.2v1.9c0,.4-.4,1-1,1.6v2c-.7.7-1.4,1.6-2.2,2.7-.5,0-.9.5-1.1,1.3,0,0-.7.5-1.8,1.5h-1.6c-1.2.2-1.8.4-1.9.4v-.6c0-.1-.1-.2-.4-.3-.5,0-.9.6-1.3,1.5-.4.8-.9,1.3-1.5,1.4v-.2c-.1,0,.2-.9.2-.9-.3,0-.5-.2-.5-.3v-.5c0-.2.1-.2.3-.3h.9c.6-1.4.9-2.3.9-2.8h-.1c-.5.6-.8.9-.9.9h-.2c-.2,0-.3,0-.3-.2v-.3c.8-1.2,1.1-1.9,1.1-2.3-.5-1.1-1.7-2.6-3.5-4.5-.4-.7-1-2.2-1.7-4.4-.9-1.2-1.4-2.3-1.4-3.4-1-2-1.6-3-2-3.2-.6,2.7-1.4,4.5-2.5,5.4-.7.6-1.1,1.8-1.2,3.7s.2.6.6,1.4c-1,3.4-1.8,5.1-2.6,5.2s-.8,1.1-1.4,3.2l-.6.6h-.3v-.6c-.1,0-.1-.5-.1-.5h-.5c-2,5-3,7.8-3,8.4h-.3q-.2,0-.2-.2v-.2c.3-1.4.9-4.7,1.7-9.8l-.6-1.3c.3-1.2.6-2.6.8-4.2h-.1c-.3.2-.5.4-.8.4h0c0-.9.4-2.3,1.1-4.3,0-.5.5-2.3,1.4-5.5,0-.2-.2-.6-.5-1.3l3-10c0-.5-.1-1-.1-1.3v-.4c0-.2.4-1.5,1.3-3.9,0-2.1.3-3.2.9-3.2l4.3-4.9v-.9c-.1,0-.1-.6-.1-.6l.6-.2c0,.5.3.7,1,.7,0-.4,0-1.2.3-2.2l-.4-.6v-.3c.2-.5.6-.8,1-.9s.9.2.9.9c-.3.6-.4,1-.4,1.2v1.7h.3c0-.4.2-.5.4-.6h.4c.2.5.2.9.2,1,.9-.6,1.6-1.7,2.2-3.3h.4v.5h.1c-1.1,3-1.7,5.2-1.7,6.7,0,0-.1,0-.1.2,0,.4.1.8.1,1.1h0c0,.1-.5,2.2-.5,2.2,0,.2.6,1.2,1.7,2.9,2.2,4.9,3.3,8.9,3.3,12.1.7,1.9,1.3,3.9,1.8,6.1h.1c1.2-5.8,2.2-9.1,2.9-9.9,1-1.2,1.9-4.3,2.8-9.4v-.8l-.2-2.3c1.3-5,2-7.7,2-8.1,0-1,.7-2.7,1.9-5.1.3-1.2.8-3.5,1.3-7,.2-.5.4-.8.5-.8h.1c.2.5.2.8.2,1v1.1c.3,0,.7-1.5,1-4.4,1.3-4.9,2-7.5,2-8,.2-.7.4-1.1.6-1.1M247.5,354h.1v-.2h-.1v.2ZM256.2,315.9l1.1-.2c.2.5.2.9.2,1.1v.4c-.1.4-.4.6-.9.6-.4-.3-.7-.4-.9-.4v-1.1c0-.1.1-.3.4-.4M259.7,312.6h.5c.2,0,.3.1.4.6-.3.3-.6.5-.9.5h-.1v-.2l.2-.9h-.1ZM265,313.1h.6v.5h.1c0,.3,0,.4-.3.4h-.5c-.2,0-.3,0-.3-.1v-.5c0-.2.1-.3.3-.3M265.1,367.1h.5v.5c.1,0,.1.3.1.3l-.6.2h-.3c0-.2,0-.3-.1-.5.1-.3.2-.5.4-.5M267.4,337.7v.3c0,.2.1.3.1.3h.1v-.3c0-.1-.1-.3-.1-.4h-.1ZM269,364.8h1c.2.6.4,1,.4,1,0,.4-.3.7-.6.9h-.1c-.7.1-1.1-.2-1.1-.8.3-.5.5-.9.5-1.1M281.3,305.4h.1v-.5h-.1v.5ZM283.5,322.2c0,.2,0,.4-.1.5h.3v-.5h-.2Z" fill="#c40606"/>
      <path d="M304.6,305.6h.4c.1,1,.7,2.4,1.7,4,.4.9.5,1.9.5,3.2s0,2-.2,2.9c0,.5.1,1.2.1,2s-1.1,4.1-3.4,8.8h.3c1.1-.6,2.7-2,4.7-4.4.5-1.3,1.1-2,1.7-2.1.6-1,1.2-1.7,1.9-2,0-.6.5-1.4,1.5-2.3h1.2c.4-.5.7-.9,1-1.4v-.8c0-.8.5-1.5,1.5-2.1,0-.4.6-1.1,1.8-2.2,0-.6.7-1.4,2.1-2.4,1.8-.5,3.9-.8,6.2-1.2s1.3.3,2.5,1.1c.3-.2.6-.3.8-.4h.3c.2,0,.3.3.4,1.1,1.8-1.2,2.8-1.9,3.2-1.9h.1v.8c-.3,0-1.2,1-2.7,3-1.8,1.8-2.7,3.1-2.9,4-1.5,1.5-2.9,2.4-4.3,2.8-.2.2-.7,1.1-1.5,2.7v.7c.1,0,.1.1.1.1-.2,1-1.1,2.3-2.6,3.7-1.8.5-4,2.4-6.5,5.8h-1.4c-.9.9-1.5,1.8-1.8,2.5-.3,0-1.2.9-2.5,2.6-.7.3-1.8,1.1-3.5,2.5-.4.3-1.3.6-2.8.8v.3c.6,0,1.3.3,2,1.2.5.4,2.9.5,7.2.4,1.3.7,3.3,1.2,6,1.7.5.3,1,.9,1.5,1.7,1,.2,2.1.4,3.3.5,1-.2,1.7-.4,2.2-.4h.3c1.8.3,3.6,1.1,5.5,2.4.3,1.1.9,1.8,1.7,2.1,1.3.5,1.9,1,1.9,1.6-.2.1-.3.2-.4.2-.6-.1-1-.1-1.3-.1v.4c4,2.4,6.7,3.7,7.9,4l.4.6v.4l-.7.2h-.4c0-.9-2.7-1.9-8-3-.8-.6-1.4-.9-1.9-.8s-.7.1-1.6.4c-1.1-.7-2.6-1-4.5-1h0c0,.1.3.5.3.5v.3h-.1c-.4,0-2.2-.4-5.3-1.3-3.3-.6-5.2-.9-5.7-.8h-.3c-.3.4-.7.5-.9.6-.6,0-2.8-.4-6.6-1.4-.4,0-2-.2-4.8-.7-.8.2-1.4.3-1.9.4h-.3c-1.2.8-1.8,2.4-1.8,4.9s.3,1.1.8,2.2c-.6,1.8-1,3.6-1.2,5.5-1.2,1-1.8,2.6-1.8,4.9-.2.7-.4,1-.6,1-.4-.9-.7-1.3-1-1.2l-1.7,8.5c0,.8-.2,1.2-.4,1.3h-.3c.2-3.6.4-5.7.4-6.4-.2-1.9-.3-3-.2-3.4v-1.6c-.7-.8-1-1.3-1-1.6.2-1.6.3-2.9.3-3.8v-.3c0-.5-.1-.7-.4-.8-.2.1-.4.2-.5.2l-.2-.3h0c.2-2.4.7-5.1,1.5-8.2,0-.3,0-.7.1-1.2-.2,0-.6-.2-1.3-.6-1.6,1.3-3,2.2-4,2.8v-.3c-.1,0-.1-.3-.1-.3.4-.1,1.5-1.1,3-3h0c-.4-.9-.7-1.6-.7-2.2l-1.2.2c-.2-.8-.3-1.4-.3-1.6.3-.1.4-.4.4-.9s-.2-.6-.7-.7c-.7.5-1.1.7-1.4.8v-1c.2-.3.4-.7.6-1.2h-.1c-1.2.8-1.8,1.7-1.8,2.7v2.6c0,.1-.2.3-.6.5-.5-.5-.7-1.2-.7-2.1v-.3c0-2.8,1.4-4.8,4-5.9h.8c.6-.2,1.3-.3,2.2-.3l.8-.5c.6,0,1.7-.2,3.2-.2,0-.7.4-2.5,1.3-5.5,0-1.4-.1-2.3-.1-2.5,1-3.2,1.5-5.3,1.5-6.5,0-2.2.4-3.3,1.1-3.4.5-.6,1.1-1.4,1.7-2.4.8-.3,1.4-.9,1.8-1.6.6-1.6,1.7-2.6,3.5-2.8v-.3c.1,0,.1-1.8.1-1.8h.5c0,.2.3.5,1,.7v-.8c0-.5,0-1.5-.2-3.2l.3-.2v-.2ZM283.5,346.1l.4.5v.5l-.6.2c-.4,0-.6-.2-.6-.3v-.7l.7-.2h.1ZM300.4,307.3h.7c.3.6.4,1,.4,1.3-.2.4-.5.6-1,.7-.7-.1-1.1-.5-1.1-1.1v-.3c.2-.4.5-.6,1-.7M302.7,303.4h.5c.3,0,.4.2.4.7h0c0,.1-.7.4-.7.4h-.2q-.2,0-.2-.3v-.7h.2ZM320.3,323.1h.3v-.3c-.2,0-.3.2-.3.3M323.4,350.5h.2v-.3h-.2v.3ZM326.7,314.5l-.2.3h.2c.2-.1.3-.2.4-.2h0c0-.1-.4,0-.4,0h0ZM331.3,302.1c.6.2,1,.6,1,1.1v.4c-.6.4-1.1.7-1.5.7s-.4-.3-.4-.7v-.9c.2,0,.5-.2,1-.6M333.7,348.5h.3v-.2h-.3v.2ZM336.1,302.5h.3v.6h.1c0,.3,0,.4-.3.4h-.7l-.2-.6v-.3l.7-.2h.1Z" fill="#c40606"/>
      <path d="M368.7,280.7l.2,1c-.6,4-1.1,6.8-1.5,8.5,0,1.2.1,2.1.1,3-.4,1.6-.5,2.8-.6,3.6v.5l.6,2.5c-.7,5.3-1.1,8.5-1.1,9.7h0c0,.1.1,0,.1,0,.3-.5.4-.7.4-.8h.1c.2,0,.3,0,.3.2-.7,4.4-1.5,8.1-2.5,11.3-1.8,7.1-2.6,11-2.6,11.4s.1,1,.3,2c-.9,3.7-1.3,5.7-1.3,6.2v1.9c0,.4-.4,1-1,1.6v2c-.7.7-1.4,1.6-2.2,2.7-.5,0-.9.5-1.1,1.3,0,0-.7.5-1.8,1.5h-1.6c-1.2.2-1.8.4-1.9.4v-.6c0-.1-.1-.2-.4-.3-.5,0-.9.6-1.3,1.5-.4.8-.9,1.3-1.5,1.4v-.2c-.1,0,.2-.9.2-.9-.3,0-.5-.2-.5-.3v-.5c0-.2.1-.2.3-.3h.9c.6-1.4.9-2.3.9-2.8h-.1c-.5.6-.8.9-.9.9h-.2c-.2,0-.3,0-.3-.2v-.3c.8-1.2,1.1-1.9,1.1-2.3-.5-1.1-1.7-2.6-3.5-4.5-.4-.7-1-2.2-1.7-4.4-.9-1.2-1.4-2.3-1.4-3.4-1-2-1.6-3-2-3.2-.6,2.7-1.4,4.5-2.5,5.4-.7.6-1.1,1.8-1.2,3.7s.2.6.6,1.4c-1,3.4-1.8,5.1-2.6,5.2s-.8,1.1-1.4,3.2l-.6.6h-.3v-.6c-.1,0-.1-.5-.1-.5h-.5c-2,5-3,7.8-3,8.4h-.3q-.2,0-.2-.2v-.2c.3-1.4.9-4.7,1.7-9.8l-.6-1.3c.3-1.2.6-2.6.8-4.2h-.1c-.3.2-.5.4-.8.4h0c0-.9.4-2.3,1.1-4.3,0-.5.5-2.3,1.4-5.5,0-.2-.2-.6-.5-1.3l3-10c0-.5-.1-1-.1-1.3v-.4c0-.2.4-1.5,1.3-3.9,0-2.1.3-3.2.9-3.2l4.3-4.9v-.9c-.1,0-.1-.6-.1-.6l.6-.2c0,.5.3.7,1,.7,0-.4,0-1.2.3-2.2l-.4-.6v-.3c.2-.5.6-.8,1-.9s.9.2.9.9c-.3.6-.4,1-.4,1.2v1.7h.3c0-.4.2-.5.4-.6h.4c.2.5.2.9.2,1,.9-.6,1.6-1.7,2.2-3.3h.4v.5h.1c-1.1,3-1.7,5.2-1.7,6.7,0,0-.1,0-.1.2,0,.4.1.8.1,1.1h0c0,.1-.5,2.2-.5,2.2,0,.2.6,1.2,1.7,2.9,2.2,4.9,3.3,8.9,3.3,12.1.7,1.9,1.3,3.9,1.8,6.1h.1c1.2-5.8,2.2-9.1,2.9-9.9,1-1.2,1.9-4.3,2.8-9.4v-.8l-.2-2.3c1.3-5,2-7.7,2-8.1,0-1,.7-2.7,1.9-5.1.3-1.2.8-3.5,1.3-7,.2-.5.4-.8.5-.8h.1c.2.5.2.8.2,1v1.1c.3,0,.7-1.5,1-4.4,1.3-4.9,2-7.5,2-8,.2-.7.4-1.1.6-1.1M330.8,341.9h.1v-.2h-.1v.2ZM339.4,303.7l1.1-.2c.2.5.2.9.2,1.1v.4c-.1.4-.4.6-.9.6-.4-.3-.7-.4-.9-.4v-1.1c0-.1.1-.3.4-.4M342.9,300.5h.5c.2,0,.3.1.4.6-.3.3-.6.5-.9.5h-.1v-.2l.2-.9h-.1ZM348.2,301h.6v.5h.1c0,.3,0,.4-.3.4h-.5c-.2,0-.3,0-.3-.1v-.5c0-.2.1-.3.3-.3M348.3,355h.5v.5c.1,0,.1.3.1.3l-.6.2h-.3c0-.2,0-.3-.1-.5.1-.3.2-.5.4-.5M350.7,325.6v.3c0,.2.1.3.1.3h.1v-.3c0-.1-.1-.3-.1-.4h-.1ZM352.2,352.7h1c.2.6.4,1,.4,1,0,.4-.3.7-.6.9h-.1c-.7.1-1.1-.2-1.1-.8.3-.5.5-.9.5-1.1M364.5,293.3h.1v-.5h-.1v.5ZM366.7,310.1c0,.2,0,.4-.1.5h.3v-.5h-.2Z" fill="#c40606"/>
      <path d="M391.9,295.2h.5c.6.4,1.2.6,1.7.5l1.3-.2c.6,0,1.8.5,3.5,1.8h.1c.5-.3.9-.4,1.1-.4.4,0,.8,0,1,.5,0,.2-.3.8-.8,1.7,1.2,1.5,1.7,2.6,1.7,3.4v.2l-.6.2h-1.3c-.4.2-.6.5-.6.8.9.7,1.6,1,2.1.9,0-.3.2-.5.4-.5h.7c.8-.1,1.1.2,1.1.7s-.3.6-.8,1.2c1.8,1,2.6,3.5,2.6,7.4.6.7.9,1.3.9,1.7-.5,2.1-.9,4.1-1.1,6-.3.7-.6,1.8-.8,3.3l.8-.7h.1c0,2.2-1.9,5.9-5.7,11.3-3.2,3.7-5.7,6-7.5,6.9-3.2,2.2-5.2,3.4-5.8,3.7-.7,0-1.1.2-1.1.3-2.1.3-4.6-.2-7.5-1.5-4.1-2.6-6.1-7-6-13.2v-.6c0-.5,0-1,.1-1.8h0c0-.1-.1,0-.1,0-.5,1.8-.9,2.7-1,2.7l-.3-.3v-1l1.1-5.3c.2-2,.4-3,.6-3v-.6c-.4-.6-.7-.9-.8-.9.8-2.7,1.2-4.1,1.2-4.3h-.6c-.2.1-.3,0-.3,0h0c1-2.5,2.3-4.8,4-7,1.1-.9,1.6-1.7,1.7-2.2v-.5c.5-1.1,1.8-2.6,3.9-4.3.6-.8,2.3-1.9,5.1-3.2.9-1.2,2.6-2,5.1-2.3v-.6c0-.2.1-.3.4-.3h0c0-.1-.1-.4-.1-.4h0ZM398.5,305v.3c-.1,0,1.1,1.1,1.1,1.1v.5c-.3.1-.5.2-.5.2h0c.3.4.5.8.5,1.3v.6h-.5c-.9-1.1-1.7-2-2.6-2.9-1.1.3-1.8.5-2.2.6s-.8-.2-1.9-.6c0,.6-1.1,2.5-3.3,5.6-.6,1.5-2,3.3-4,5.3-1.8,2.8-2.7,5.2-2.7,7.3-.2,3.3-.5,4.9-1.1,5l-.6,1c.1.3.2,1.1.3,2.5.9,2.2,1.9,3.2,3.1,3,.9.3,1.7.4,2.5.3s1.7-.7,4.2-2c1.3-.2,2.2-.8,2.8-1.8.9-.8,1.8-2.2,2.7-4.1.2-2.3.6-3.8,1.1-4.5,1.4-2.8,2.1-4.8,2.1-6.1.2-.6.7-1.3,1.4-2,.4-.7.5-1.5.5-2.3s0-2.2-.3-4c0-.2.1-.3.1-.5h.4s.4.2,1,.8h.1c.2,0,.3-.1.3-.3-.6-1.7-1.8-3.1-3.6-4.2-.2,0-.5,0-.9-.1M386.9,314.1v.3c.2,0,.3-.1.3-.3h-.3ZM404.8,325.6h.1v-.3h-.1v.3Z" fill="#c40606"/>
      <path d="M460.6,275.3h.3c0,1-1,3.6-2.9,7.9,0,1.1-.4,2.4-1.2,4,0,.5.1,1,0,1.3v.5c0,.1-.5,1.2-1.4,3.2l-.8,2.9h.1l.4-.3h.4v.2c-2.4,6.2-4,10.5-4.8,13,0,.5-.1.8-.1,1s.1.5.4,1c-.7,2.4-1.9,5.8-3.7,10.3-1.1,3.3-1.7,5.5-1.7,6.6s-.4,1.9-1.3,3.7c0,.8-.4,1.9-1.2,3.3-.6,3.9-1.3,5.9-2.1,6-.5.5-1.2,1.4-2,2.8-.7.3-1.7,1.6-3.1,3.7-1,1-1.6,1.6-2,1.6v.5c0,.4-.1.7-.4.8-.2,0-.4-.6-.5-1.8h-.7c0,.7-.5,1.4-1.5,2.2v-.6c-.1,0-.1-.4-.1-.4,0,0,0-.4.3-1h-.1c-.2,0-.6.7-1.3,2.1-.8,1.2-1.4,1.8-1.8,1.9v-.2c-.1,0-.1-.4-.1-.4,1-1.5,2.1-4.7,3.1-9.4,0-1.1.2-2.5.7-4.2v-.8c0-.3,0-.7-.2-1l-.6.2h-.1c-.2-1.1-.5-3.6-.7-7.5v-.9c0-.7-.3-1.1-.8-1l-6.1,15.8c-1.3,1.9-2.8,3-4.4,3.2h-.3c-2.6.4-4.3-1.2-5.2-4.7-.2-1-.2-2-.2-3v-7.2c-.2-3-.3-4.9-.3-5.5s.1-3.2.3-7.4c-.1-2-.2-4-.2-5.9s1.2-5.4,3.6-10.8c1-4.3,2.1-6.5,3.3-6.7.3.1.7.2,1,.1.3-.3.4-.8.4-1.3s-.2-.9-.5-2.3c0-.2.1-.3.3-.3h.4l1.1,2.3h.3v-.9c-.6-1.9-.9-3.1-.8-3.5,0-.6.2-.9.4-.9h.1c.2,0,.4.6.7,1.9,1.1,1.4,1.6,2.7,1.6,4.1-.3,2.1-.6,5.2-.8,9.1.1.3.2.8.2,1.4v.4c0,1.6-.4,4.8-1.1,9.6-.9,1.9-1.4,4.2-1.5,6.8-.3.8-.4,1.6-.4,2.4.2,2.7.3,4.3.3,4.7h.3v-.2c0-2.9.8-5.6,2.2-7.9.8-1.6,1.4-3.3,1.9-5.1.4-.9,1.3-2.1,2.7-3.5v-.4c-.2-1.5-.3-2.3-.3-2.4,0-.3.3-.9,1-1.8,0-.6.6-1.3,1.5-2.3,0-.9.7-2,1.9-3.2h1.8c0-.8.5-1.6,1.3-2.3.7-2,1.3-3.2,1.8-3.6.4-1.3.8-2,1.1-2.2h.3c0,.7-.4,1.7-1,3,0,.7.1,1.1,0,1.2,0,.4,0,1.4-.1,2.9,0,.6.3,2.5.8,5.6v.6c0,.6-.5,2.3-1.3,5v.6l.4,3.5v.5c-.5,0-.8.6-.9,1.6v.2c.5,1.3.7,3,.7,4.9v.4h.1c0-.5.5-1,1.5-1.5.4-.6.6-1.8.8-3.6,1-2.7,1.5-4.6,1.6-5.8.8-1.3,1.7-3.5,2.7-6.7,1.9-2.6,2.8-4.1,2.8-4.4.3-.9.7-2.3,1-4.1-.2-.7-.2-1.1-.2-1.2,0-.2.9-1.9,2.6-5.1,0-.8.7-1.7,2.2-2.5.2-.2,1-1.8,2.3-4.7l.6-.6h.1v1.7c-.1,0,.4,0,.4,0,.9-2.1,2.3-4.7,4-7.8.3-.9.5-1.3.8-1.4M418.2,289c.6,0,.9.4.9,1.4-.3.3-.6.5-.9.5h-.3c-.5-.2-.7-.4-.7-.8v-.4c0-.2.3-.5,1-.6M420.4,285.5h.6v.5c.1,0-.4.4-.4.4h-.4s0-.2-.2-.4c.1-.3.2-.5.4-.5M422.3,313.2h.1v-.3h-.1v.3ZM427.5,353.3h.5c.1,0,.2,0,.4.3v.5l-.6.2h-.4s0-.2-.1-.3c.2-.3.3-.5.3-.7M431.8,350.8h.2c.7-.1,1,.3,1,1.3-.3.5-.6.7-.8.7-.4,0-.8-.1-1.1-.6v-.5c.4-.5.6-.8.6-1M432.5,296.9l1.1-.2.2.8v.5c-.2.4-.6.7-1,.8h-.1c-.4-.5-.6-.9-.6-1.1v-.4c0-.1.1-.3.4-.4M436.5,294.1h.4q.2,0,.2.2v.6l-.6.2h-.2c0-.2,0-.3-.1-.4.1-.4.3-.5.4-.6M454.9,283.7h.3v-.3h-.3v.3ZM454.8,295.8h.3v-.2h-.3v.2Z" fill="#c40606"/>
      <path d="M497.2,262l.2,1c-.6,4-1.1,6.8-1.5,8.5,0,1.2.1,2.1.1,3-.4,1.6-.5,2.8-.6,3.6v.5l.6,2.5c-.7,5.3-1.1,8.5-1.1,9.7h0c0,.1.1,0,.1,0,.3-.5.4-.7.4-.8h.1c.2,0,.3,0,.3.2-.7,4.4-1.5,8.1-2.5,11.3-1.8,7.1-2.6,11-2.6,11.4s.1,1,.3,2c-.9,3.7-1.3,5.7-1.3,6.2v1.9c0,.4-.4,1-1,1.6v2c-.7.7-1.4,1.6-2.2,2.7-.5,0-.9.5-1.1,1.3,0,0-.7.5-1.8,1.5h-1.6c-1.2.2-1.8.4-1.9.4v-.6c0-.1-.1-.2-.4-.3-.5,0-.9.6-1.3,1.5-.4.8-.9,1.3-1.5,1.4v-.2c-.1,0,.2-.9.2-.9-.3,0-.5-.2-.5-.3v-.5c0-.2.1-.2.3-.3h.9c.6-1.4.9-2.3.9-2.8h-.1c-.5.6-.8.9-.9.9h-.2c-.2,0-.3,0-.3-.2v-.3c.8-1.2,1.1-1.9,1.1-2.3-.5-1.1-1.7-2.6-3.5-4.5-.4-.7-1-2.2-1.7-4.4-.9-1.2-1.4-2.3-1.4-3.4-1-2-1.6-3-2-3.2-.6,2.7-1.4,4.5-2.5,5.4-.7.6-1.1,1.8-1.2,3.7s.2.6.6,1.4c-1,3.4-1.8,5.1-2.6,5.2s-.8,1.1-1.4,3.2l-.6.6h-.3v-.6c-.1,0-.1-.5-.1-.5h-.5c-2,5-3,7.8-3,8.4h-.3q-.2,0-.2-.2v-.2c.3-1.4.9-4.7,1.7-9.8l-.6-1.3c.3-1.2.6-2.6.8-4.2h-.1c-.3.2-.5.4-.8.4h0c0-.9.4-2.3,1.1-4.3,0-.5.5-2.3,1.4-5.5,0-.2-.2-.6-.5-1.3l3-10c0-.5-.1-1-.1-1.3v-.4c0-.2.4-1.5,1.3-3.9,0-2.1.3-3.2.9-3.2l4.3-4.9v-.9c-.1,0-.1-.6-.1-.6l.6-.2c0,.5.3.7,1,.7,0-.4,0-1.2.3-2.2l-.4-.6v-.3c.2-.5.6-.8,1-.9s.9.2.9.9c-.3.6-.4,1-.4,1.2v1.7h.3c0-.4.2-.5.4-.6h.4c.2.5.2.9.2,1,.9-.6,1.6-1.7,2.2-3.3h.4v.5h.1c-1.1,3-1.7,5.2-1.7,6.7,0,0-.1,0-.1.2,0,.4.1.8.1,1.1h0c0,.1-.5,2.2-.5,2.2,0,.2.6,1.2,1.7,2.9,2.2,4.9,3.3,8.9,3.3,12.1.7,1.9,1.3,3.9,1.8,6.1h.1c1.2-5.8,2.2-9.1,2.9-9.9,1-1.2,1.9-4.3,2.8-9.4v-.8l-.2-2.3c1.3-5,2-7.7,2-8.1,0-1,.7-2.7,1.9-5.1.3-1.2.8-3.5,1.3-7,.2-.5.4-.8.5-.8h.1c.2.5.2.8.2,1v1.1c.3,0,.7-1.5,1-4.4,1.3-4.9,2-7.5,2-8,.2-.7.4-1.1.6-1.1M459.3,323.2h.1v-.2h-.1v.2ZM467.9,285.1l1.1-.2c.2.5.2.9.2,1.1v.4c-.1.4-.4.6-.9.6-.4-.3-.7-.4-.9-.4v-1.1c0-.1.2-.3.4-.4M471.4,281.8h.5c.2,0,.3.1.4.6-.3.3-.6.5-.9.5h-.1v-.2l.2-.9h-.1ZM476.7,282.3h.6v.5h.1c0,.3,0,.4-.3.4h-.5c-.2,0-.3,0-.3-.1v-.5c0-.2.1-.3.3-.3M476.8,336.3h.5v.5c.1,0,.1.3.1.3l-.6.2h-.3c0-.2,0-.3-.1-.5.1-.3.2-.5.4-.5M479.2,306.9v.3c0,.2.1.3.1.3h.1v-.3c0-.1-.1-.3-.1-.4h-.1ZM480.7,334h1c.2.6.4,1,.4,1,0,.4-.3.7-.6.9h-.1c-.7.1-1.1-.2-1.1-.8.3-.5.5-.9.5-1.1M493,274.6h.1v-.5h-.1v.5ZM495.2,291.4c0,.2,0,.4-.1.5h.3v-.5h-.2Z" fill="#c40606"/>
    </g>
    <g id="Creature">
      <path d="M258.9,374.1c4.7.5,7,1.6,7,3.2v.5s0,.1-.1.1c.8.8,1.2,2.2,1.2,4.2-.1,0-.3.2-.6.6v.8c0,.2-.5,1-1.6,2.4-.6,1.2-1.3,1.8-2.1,1.9s-.9,0-2-.2c0,.1-.1.5-.4,1.1h-.3v-1c.1,0-.5,0-.5,0-.6,0-1.3,1.1-2.1,3h-.4v-.2c.6-1.3.9-2.6,1-3.9v-1.3c-.9.1-2.4,1.7-4.7,4.6-2.8,2.8-4.2,4.8-4.2,5.9-.5,1.4-1.1,2.5-2,3.3-.8,1.4-1.4,2.3-1.6,2.5-.8.1-1.7,2.3-2.8,6.6-2.8,6-4.2,9.9-4.3,11.7-.4,1-.7,1.9-1.1,2.6v.6c.1,0,0,.3-.4.8.2.5.2.8.2.9-.2.3-.3.5-.3.7h0c0,.5.1.8.4,1.2h-.4c0,.2.1.3.4.6,1.3-.5,2-1,2-1.4.7-.5,1.3-1.6,1.9-3.1,1.6-1.5,2.6-2.6,3-3.4,1-1,1.8-1.5,2.3-1.6h0c0,.1-.3.5-.3.5h0c0,.1.1,0,.1,0,.4-.2,1-1,1.9-2.3.2,0,1.2-1.1,3-3.3.4-.3.8-.6,1.2-.9v.2c-.2.5-.3.9-.3,1.1h.4c.6,0,1.3-.9,2.3-2.4,2.2-2.2,3.6-4.2,4.4-6,.6-.2,1.2-.9,1.6-1.9l.7-.7v.2c.1,0,.1.1.1.1-.7.7-1.5,2.3-2.6,4.8-1,1-2.3,2.7-3.9,5.2-.5,0-1,.7-1.5,1.8-.3,0-.5.4-.6,1.2-1.1,1.5-1.6,2.5-1.6,3.1h-.3c0-.3,0-.6.3-.9h-.1c-.1,0-.5,1-1.2,2.7-1.6,2.4-3.6,5-5.9,7.8,0,.1,0,.3-.3.6h.1c.4-.4.7-.6.9-.6v.2c-2.7,2.5-4.8,3.9-6.6,4.1h-.5c-3.2.5-5.5-.8-7-3.8-.5-1.3-.8-3-.7-5.1v-5.6c.2-.8.9-3.2,2.3-7.3.4,0,1.3-2.2,2.7-6.4.8-1.9,3.3-6.7,7.6-14.4,0-.5.5-1.3,1.6-2.4.1-.7.9-1.8,2.4-3.3,0-.1.3-.5.7-1.1l-.4-.2c-.3,0-1.3,1-3.1,2.7-.5,0-1.3.8-2.4,2l-.4.3h-.1v-.4c.5-.2,1.1-.9,1.7-2,1.4-1.6,2.7-2.9,3.8-3.8,0-.1-.1-.3-.1-.5.5-.2.8-.5.8-1h.5c0-1.1.8-2.1,2.4-2.7l1.9-1v-.2c-.3,0-.4,0-.4-.2s.4-.4,1.1-.5l3.2-.5c1.9-.7,2.9-1.1,3.2-1.1M238.5,398.3c0,.1,0,.3-.3.6h0c0,.1.1,0,.1,0,0-.1,0-.3.3-.6h0c0-.1-.1,0-.1,0ZM245.9,400s0,.2-.1.4h.1v-.3h.1c0-.1-.1-.1-.1-.1ZM247,419.9h0c.3,0,.5-.3.5-.6-.1,0-.3.2-.5.6M257.2,392.5h.4v.5c.1,0-.4.3-.4.3l-.3-.3v-.2c0-.2.1-.2.3-.3M258.1,385.8h.1v-.2h-.1v.2ZM261.1,389.7h.8c.3.4.4.7.4.9v.2s-.1.2-.4.4h-.7c-.1.1-.3,0-.5-.3h0c0-.3.1-.6.4-1.2" fill="#c40606"/>
      <path d="M259.6,402.5h.3c.2,0,.3,0,.3.2v.4c0,.2,0,.3-.3.3h-.4v-.6c-.1-.2,0-.3.2-.3M284.9,372.8c1,0,2.8-.1,5.5-.4,2.8.3,5.2.8,7.4,1.7,2.9,1.7,4.5,2.9,4.7,3.6.3,0,.6.2,1,.9.9.4,1.5,1.2,1.7,2.4.5,2,.8,3.3.8,3.8,0,2.4-1.9,6.2-5.5,11.5l-5.8,5.9c-.1.3-1,.9-2.4,1.8,0,.4-1.2,1.2-3.4,2.3-.3.2-.4.4-.4.4,1.3.6,2.9,1.7,4.9,3.1.4,0,.8.1,1.1.6.2,0,.8.6,1.6,2.1.1,0,.6.5,1.4,1.7.4,0,1.2.1,2.4.6,1.1-.2,1.9.2,2.3,1.2.3.4,1,.9,1.9,1.5,0,.6.1.9.1,1-.2.1-.3.2-.4.2h0c0,.4.9,1.1,2.4,2.2v.3c0,.2-.4.3-1.2.5,0,.6.5,1.1,1.5,1.5,0,.3.6.9,1.9,1.6.4.8.7,1.3.9,1.5.4,0,.9.3,1.5,1.1h-.7c0-.1-1-.8-2.9-1.9-2-2-3.8-2.9-5.4-2.6,0,0,0-.1-.3-.1h0c.4-.2.5-.3.5-.4-1.1.2-2.1-.1-3-.8-.5-.4-1.1-.6-1.9-.6,0-.2,0-.4-.3-.3h-.1v.5h-.5c-.9-1.1-2.8-2.4-5.5-3.8-.6-.7-1.6-.9-3.1-.7-1.2-.3-2.2-1-3.1-2-.2,0-.7-.2-1.6-.8-.2,0-1.4-.7-3.6-2.2-1.1-.5-2-.7-2.5-.6h-.4c-.3.2-.9,1.2-1.7,3-.4,0-.6.8-.6,2.1v1l.4,1.2h0c0,1-.8,2.9-2.4,5.8-.2,0-.5,0-.8-.1-.9,2.7-1.5,4.1-1.7,4.2-.4-.5-.7-.7-.8-.6-.5,0-.7.3-.7.8s-.9,2.4-2.7,5.1c-.6,1.8-1,2.7-1.1,2.7v-.5c-.1-.2.8-2.7,2.6-7.3l.3-1.3c-.2-.5-.2-1.2-.2-2h.3c-.3-.7-.4-1.2-.4-1.4,0-.4.2-2.2.6-5.3l-.3.2h-.4v-.2c.4-1.8,1.2-4.4,2.5-7.8l.3-1.8c-.8-.2-1.6-.6-2.3-1.3v-.9c.1,0,.1-.9.1-.9v-.3c-1.8-.2-2.8-.4-2.8-.5,0,0,.2,0,.4-.2.8,0,1.4,0,1.9-.2h.5c.1,0,.3-.2.4-.5-2.4-.4-4.2-.9-5.5-1.7h.4c1.3.3,3,.3,5.1,0h0c0-.3,0-.4.1-.4v-.6c-.1,0-.1-.5-.1-.5,0-.7.5-1.3,1.4-1.7l.4-.6h0c-.4-.5-.5-.9-.5-1.2s.1-.3.3-.3c0,.4.4.6,1.4.7v-.7c0-.7-.4-1.7-1.2-3v-.5h.4c1.2,2,2.1,3,2.8,2.9.4-.9.7-2.6.9-5.1,0-.4.2-.9.7-1.5v-.8c0-.7.3-1.4.7-2.1,0-.1,0-.4-.3-.7.8-1.7,2.4-3.2,4.8-4.4,1.4-.3,2-.6,2-.9h0c-.4,0-.7,0-.8-.1l-1.8.5c-.9,0-1.7-.1-2.5-.3v-.3l.3-.4h-.8c-1.1.6-2.6,1-4.5,1.4h-.9v-.4c.4,0,.6-.3.8-.6-.4-.3-.5-.5-.5-.6-3,1.1-5.1,2.1-6.2,2.9-.8.8-1.4,1.2-1.9,1.3s-.4,0-.5,0c-1.5,1.1-2.4,1.6-2.6,1.6v-.4c6.5-4.5,10.6-6.9,12.2-7.1v-.2s1.1-.6,3.4-1.9h.1c0,.2-.3.4-1,.6h0c0,.1.7.2.7.2.9-1,2.5-1.6,4.6-1.9,1.5-.6,3.4-1,5.5-1.5h0c-.3,0-.4-.1-.4-.3v-.7ZM261.9,405.7c.5,0,.9.1,1.2.6v.4c-.6.4-1,.7-1.2.7h-.3c-.1,0-.3,0-.4-.3v-1l.7-.4h0ZM266.2,395.7c.6.2.9.5.9,1v.4l-1,.3h-.5c-.3-.5-.4-.8-.4-1,.5-.4.8-.6.9-.6M267.2,391.6h.4c.2,0,.3,0,.3.2v.4c0,.2,0,.3-.3.3h-.3c-.2,0-.3,0-.3-.2l.2-.7h0ZM266.8,424.3h.1v.5h-.1v-.5ZM275.8,382.5h.4v.5h.1c0,.1-.7.4-.7.4v-.6c0-.2,0-.3.2-.3M277.2,378.1h.7v-.2h-.7v.2ZM288.6,379.2h-.8c-1.3.3-1.9.6-1.9.9v.9c.2.7.4,1.7.4,2.9s-.4,2.5-1.1,2.6c-.1.7-.3,1.1-.7,1.1v.6c0,.2-.7,1.5-1.9,4.1v.4s0,.6.1,1.6c-.1.5-.8,1.7-1.9,3.4-.2.4-.3,1.1-.3,1.8.6.2,1.3.2,2.2,0,2.1-.6,4.3-1.6,6.6-2.7,0-.5.5-1.1,1.4-1.8.8-.4,1.7-1,2.7-1.9,1-.1,1.8-1,2.6-2.7.3-.5.9-1.7,1.7-3.8v-1.1c-1.2-3.5-2.8-5.7-4.9-6.4-.5,0-.7-.1-.7-.3v-.3s-.4,0-1.1-.2c-1.2.5-2,.8-2.3.8M285.5,381.6c0,.1.1.3.1.3h.1v-.4h-.3,0ZM292.9,393.7v.3c.2-.1.3-.2.4-.2h0c0-.1-.4,0-.4,0h0ZM298.3,397.9h.1v-.3h-.1v.3ZM299.4,396.6v.3c-.1,0-.1.1-.1.1h.1s0-.2.1-.4h-.1Z" fill="#c40606"/>
      <path d="M295.8,413.7h.5q.2,0,.2.1h0c0,.2-.1.4-.3.5h-.3v-.6h-.1ZM329.7,364.4h.1q.2,0,.2.2v.2c-.2.8-.2,1.2-.2,1.3v.3c0,.2.3.3.7.2l.8-.7h.9c.8-.2,1.4-.3,1.8-.4h.2l3.7.5c0,.1,0,.2.2.2h.3c.2-.3.9-.8,2.1-1.5,0-.2.2-.4.6-.5,2.7-.4,4-.4,4,0v.2s-.1.1-.1.3h.9l.6-.2h.8c.4-.2.7,0,.9.3-.1,0-.3.2-.6.5.2.2.2.4.2.5l1.6-.2c3,0,4.7-.1,5-.2v.2l-.8.3-4.3.6c-1.2.2-2.2.6-3,1.2l-.3-.2h-.2c0,.6-1.2,1.2-3.6,1.8-.3.3-.5.4-.5.5s.1.2.1.3h-.3l-.8.4c-.5,0-1.6.2-3.3.4-2.1.3-3.4.9-3.9,1.7-.6.3-1.3.5-2.2.7h-.6c-.9,1.3-1.4,2.5-1.4,3.7s-.5,1.1-1.4,1.9c0,.8-.7,2-1.9,3.8-.4.9-.6,1.6-.6,2.2v.8c1.6.2,2.4.4,2.5.5h.6c0-.4.5-.7,1.4-1.2l.2-.6,1.9-.3,1.4-.3c.4.5.7.8,1,.8.5-.2.8-.3,1-.4h.2c.5,0,.7,0,.7.2v.2l-.2.4h0c0,.4,1.5.4,4.6,0,0,0,0,.1.1,0,.4-.1.8-.2,1-.3h.9c0-.1,0,0,0,0-3.6.9-5.7,1.5-6.4,1.7,0,.3-.4.5-1.3.7,0,.4-.6.8-1.7,1.4-1.1.4-1.7.7-2,1.1,0,.1.1.2.1.3-.4.3-.9.5-1.5.6h-.2c-.5.1-1,.1-1.5.1-2.6.6-3.9,1.1-3.9,1.6l-.9.4h-.2c-.9,0-1.4.5-1.7,1.3,0,.1-.5,1.2-1.5,3.3-.6,2.1-1.3,3.5-2.2,4.2-.2,0-.4.4-.5,1.2-.5,0-.9.7-1.4,1.8-.3,0-.5.4-.7,1v.5c.1,0,0,.8,0,.8,2.6-.5,3.9-1,3.9-1.4.4-.3.8-.5,1.3-.5h1.4c0,.2,0,.3.2.3v-.2h.9c.3,0,2.2-.9,5.7-2.5l6.4-2,6.1-.2h.3c.2-.5,1.2-1,2.8-1.6.3-.6,1-.9,2-1.1h1c2.9-.6,4.3-.5,4.3.1-.2,0-.2.1-.2.3.2,0,.5,0,.8.1,1-.2,1.8-.4,2.4-.5s1,0,1.3.4l-.7.7h0c0,.4.5.5,1.4.6,1.2-.3,1.9-.4,2.2-.4,1.3-.2,2.4,0,3.2.3h.1c.8-.2,1.4-.3,1.8-.4v.2c-.5.1-.8.3-.8.4h-.9c-1.5.2-3.2.4-4.9.6-.9.2-1.7.4-2.5.5-1.1.7-1.8,1-2.1,1.1h-.1c.3,0,.5-.2.5-.4h-.5c0,.5-2.1,1.3-6.3,2.6v.2c.3,0,.5,0,.5.2h0c-1.6.3-4.8,1.2-9.6,2.6-1,.1-1.5.4-1.5.9-1.8,1.1-3.4,1.8-4.9,2.1h-.8c-4.6,1.5-7.7,2.6-9.2,3.4,0,.1-.8.4-2.4.9-1,.6-1.8.9-2.2,1l-1.4.2c-.3,0-.6.3-.8.7l-1.5.2c-1,.1-1.5.6-1.5,1.2l-.8.9h-.1c-.2,0-.2-.2-.2-.6h-.2c-.7.1-1.2,1.2-1.5,3.2l-1.4,2.4c-.3,0-.6.8-.9,2.4h-.2c0,.1-.1.2-.1.2v-.3c.6-2.1,1.4-4.4,2.4-6.9,0-.4.1-.8.1-1.1v-1.1c-3.1,0-4.7-.3-4.7-.8-.1,0-.2,0-.3-.3v-.8c0-.4,0-.7-.3-.9l-.6.2-1.3.2h0c0-.2.6-.5,1.7-.9,0-.2.1-.2.3-.3h0c-1.9,0-3.4-.1-4.6-.4h0c3.1-.6,6.6-1.9,10.6-4.2.8-2.2,1.7-4.4,2.8-6.5.1-.8.6-1.9,1.3-3.4v-2c.6-1.5.9-2.3.9-2.5h0c0-.3-.8-1-2.1-2.1v-.3c0-.4,0-1,.1-1.9-.6-.1-.9-.3-.9-.4h0c0-.1.9-.2.9-.2,0-.1,0-.3.2-.5-.5-.5-1.4-1-2.8-1.3v-.3h.7c.7.4,2,.5,4,.2s1.5-.3,3.3-.7c.5-1.3.8-2.3.8-2.9h0c0-.1-.1,0-.1,0-.8.8-1.2,1.2-1.3,1.2v-.3c1.9-2.3,2.9-4.3,2.9-6.1h-1.1c-.9.1-1.8,0-2.7-.5-1.9,0-2.9-.5-2.8-1.5-.1-.5-.2-.9-.2-1h-.3c-.2,0-.3.1-.5.2h-.5c.8-.7,1.3-1.1,1.3-1.2-1.1-.1-1.9-.2-2.4-.1h-.9c0,.1-.6.1-.6.1,0-.2.7-.5,2.1-.8,0-.2.7-.5,2.1-.9,2.1-1.6,3.7-2.5,4.7-2.6s.8,0,1.4.1c2.4-.3,3.9-.9,4.6-1.8.7-.5,1-1,1-1.5h.8c0-.1.7.9.7.9h.3c.3-1.3.8-2,1.4-2.1.3.2.5.3.8.2v-.2c-.1,0-.1-.7-.1-.7.6-.3,1-.5,1.3-.5M298.5,415.8h.5c.6-.1.9,0,.9.1v.3c-.3.5-.6.8-1,.8h-.3c0-.1,0-.4-.2-.7.2-.3.2-.5.2-.6M305.5,410.3h0c0,.1.6,0,.6,0h0c-.2,0-.2-.1-.2-.2-.2,0-.3.2-.3.2M306.6,375.2h.2q.2,0,.2.2v.3q0,.2-.2.3h-.3v-.5q-.1-.2.1-.3M306.6,387.3h.2c.1,0,.2,0,.3.3v.2q0,.2-.2.3h-.2q-.2,0-.2-.2v-.6h.1ZM308.1,390.3c.9-.1,1.4,0,1.4.6s-.3.4-.8.8c-.5,0-.8-.1-.8-.6l.2-.8h0ZM310.1,376.8c.4,0,.6,0,.6.3v.3c-.3.6-.6.9-1,.9h-.1c-.2,0-.3-.2-.4-.6.1-.5.5-.9,1-.9M314.2,371.7s0,.2-.1.4h.2c0-.1,0-.2.1-.4h-.2ZM314,387.2c0,.1,0,.2.2.2v-.2h-.2ZM323.3,392.7h0c0,.1.1,0,.1,0,.2,0,.3-.2.3-.2h0c0-.1-.1,0-.1,0-.2,0-.3.2-.3.2M323.3,411.9h.2c0-.1-.2-.1-.2-.1h0ZM325.2,363.9h.7c.5.2.8.6.8,1l-.4.8c-.8.1-1.3-.3-1.5-1.4h0c0-.2.1-.4.3-.5M326.9,367.2h.2v-.3h-.2v.3ZM329.3,361.8h.3s0,.2.2.4v.3l-.6.2h-.2c0-.1,0-.3-.1-.4.1-.3.2-.5.3-.5M330.8,363.3h.1c.1,0,.2,0,.3.3v.2q0,.2-.2.3h-.2q-.2,0-.2-.2v-.3c0-.2.1-.2.2-.3M335.3,388h.1v.2h-.1v-.2ZM346.1,368.2h.1q0,.2-.2.3h-.1q0-.2.2-.3M350.8,400.2h.3v-.2h-.3v.2Z" fill="#c40606"/>
      <path d="M374.6,348.6h.1c.2,0,.4,1.2.4,3.9.4,0,.6.1.6.5h0c0,.3-.2.4-.6.5v.3c0,.7.2,1.2.6,1.4h0c-.2,1.2-.4,1.8-.4,1.9.4,2.2.5,4,.5,5.5v.3c0,1.5-.4,3.2-1.2,5-.2.9-.3,2.5-.5,4.7.4,1.6.5,2.6.5,3.1v.2c0,.6-.4,1.4-1.3,2.6v.7c-.1,0,.3,3,.3,3v1.9c0,.4,0,.7-.1,1.1l.2,1.8c-.3,1.1-.6,3.2-.9,6.2,1.5.3,2.3.9,2.3,1.6v.8c.9-.1,1.4,0,1.4.6h0c-.3.2-.5.3-.5.5s.5.3,1.5.1h1c0-.1.6-.1.6-.1v.5c-1.2.3-2.3.8-3.3,1.5-2.8.9-4.3,1.4-4.5,1.6-.1,0-.2.2-.2.6v1.5c.4,1,.5,1.7.5,2.2s-.4,2.5-1.2,6.6c-1.1,1.3-1.6,2.8-1.7,4.5-.2,1.2-.5,1.9-.8,1.9s-.3-.4-.3-1.4h-.2c-.4.6-.7,2-1.1,4.4-.9,2-1.5,3.8-1.8,5.2h-.3v-.2c0-1.5.4-3.8,1.2-7-.1-.4-.2-1.1-.2-2,.2-1.1.3-1.8.3-2.2s-.3-.9-.8-1.9c.3-1.5.5-2.6.5-3.3s0-1.6-.2-2.5l-.6.5h-.1v-.5c-.1-.6.1-2.7.5-6.3h-.9c-2.1.6-3.2.9-3.6,1h0c-.3-.5-.7-.7-1.4-.6h-.1c-1.5.5-2.3,1-2.3,1.5-.6.9-1,1.9-1.3,3.1-1.6,1.3-2.5,2.5-2.8,3.7,0,.6-.4,1.3-1.2,2q-.2,0-.2-.2v-1.3c.1,0-.4,0-.4,0-1,2.3-2.2,4.4-3.7,6.3-.5,1.1-.9,1.7-1.2,1.9h-.1v-.5c.1-.4.5-1.3,1.1-2.8,1.3-1.7,2-3.4,2-5,.5-1.1.8-1.8.8-2.2-.3-.8-.4-1.2-.4-1.2.7-1.9,1.1-3,1.1-3.3-.2,0-1.1-.1-2.5-.4h-.1c-2.1.7-3.1,1.3-3.1,1.8l-1.4.3-2.3.3c-.1,0-.7-.2-1.8-.6l-2.9.4v-.5c.3,0,.5-.3.7-.8h-1s-.5.1-1.1.3h-.9c-.8.3-1.7.5-2.6.6l-1.9.3v-.2c0-.4,2.1-1.1,6.2-2.1,2.1-.9,3.2-1.6,3.3-2,0-.2,1.2-.6,3.4-1.2l.3-.4-.2-.3v-.3c4.5-1,7.5-1.8,9.2-2.2.6-.4,1.1-1.5,1.6-3.3.9-1.7,1.3-2.7,1.3-3s0-.8-.2-1.4c.8-2.3,2.4-5.9,4.7-10.8.3-.5.6-1.8,1-4,.4-.4.8-1.3,1.2-2.8.6-.7,1.2-2.3,1.7-4.8.4-.7,1.3-1.5,2.4-2.4,0-.4.5-.9,1.5-1.5,0-.8.6-2,1.6-3.5.8-2.9,1.6-4.4,2.2-4.5h1c.5-.3.8-1.1.8-2.5l.5-.2c.2.3.4.9.6,1.7.3,0,.6-1.4,1-4l.3-.3h-.1ZM336.5,404.3h.1v-.2h-.1v.2ZM342.7,398.3h.2c0-.1-.2-.1-.2-.1h0ZM351.4,410.5h.1v-.2h-.1v.2ZM365.4,379.8c-1.1,3.9-1.9,6.4-2.3,7.4-.5.6-1.3,2.2-2.3,4.9-.4.6-.7,1.1-.9,1.6h.5c.7-.5,2.2-.9,4.5-1.4v-.5c-.1,0,0-1.8,0-1.8,0-1.4.3-3.6.8-6.4v-3.5l.2-.2h-.5ZM364.4,406.4h.2c0-.1-.2-.1-.2-.1h0ZM370.6,349c.5,0,.8.1.8.7v1.1h-1c-.5-.2-.7-.5-.7-.7,0-.6.4-1,.9-1M373.8,346.3c.1,0,.3.1.6.4-.2.4-.3.6-.5.6h-.5v-.5c-.1,0-.1-.3-.1-.3,0,0,.2,0,.5-.2M375,365.1v.5h.1c0-.3.1-.4.1-.5h-.2ZM377.3,392.8h1c.1.3.2.6.2.8v.3c-.5.2-.8.3-1,.4h-.6v-.7h-.1c.3-.5.5-.7.5-.9M380.5,395.1h.7v.4c.1,0,.1.3.1.3h-.7q-.2,0-.2-.3v-.6.2Z" fill="#c40606"/>
      <path d="M369.1,362h.5q.2,0,.2.2c-.1.3-.2.5-.3.5h-.3c0-.1,0-.3-.1-.4,0-.2.1-.3.1-.4M401.3,349.1c.2.6.4,1.5.7,2.7.1,0,.2,0,.3.3l1-.3h1.6c1.7-.6,2.7-.9,3-.9,1.3-.1,2.2-.2,2.9-.3.5.2.8.3.9.3s.4,0,.9-.2c1.5.3,2.4.4,2.7.4,1.2-.4,2.7-1.2,4.6-2.2h.3c.6-.1,1.5-.2,2.6,0,.8-.2,1.4-.3,1.8-.4s.8.1,1.4.5l-.2.4c.3.1.5.1.7.1,1.1-.2,2.1-.4,2.9-.5.5.2.9.3,1,.3h0c-.5.7-.7,1-.7,1,.2,0,.2.1.2.4,3.6-.5,5.6-.6,6.2-.1l.8-.2h.8c.6-.2.9-.1.9,0-.7.3-1.3.4-1.7.5h-.9c-3.4.5-5.2.7-5.5.7h-.8c-1,.6-1.7.9-2.1,1,0,.2-.3.3-.8.6v-.2c.3,0,.5-.2.5-.4h-.3c-.7.8-2.2,1.4-4.6,1.7-1.2.4-1.8.7-1.8.9l.2.3-1.1.3h-.9c-1.1.3-2.5.5-4,.8h-.6c-1.4.3-2.9.6-4.7.9-1.4,1-2.8,1.7-4.2,1.9h-.3c-.8,0-1.4.1-1.8.2-.6,1.7-.8,3-.8,3.9s.1,1.1.1,1.2c-.3,2.1-.8,3.6-1.4,4.7-.8.8-1.5,2-1.9,3.7-.3,0-.7.9-1.2,2.7-1.1,1.5-1.6,3.2-1.7,5.2-.9,1.6-1.4,2.6-1.4,2.9-1,.8-1.5,2.2-1.5,4.2-.7,3-1.5,5.5-2.4,7.5-.9,4.4-1.7,6.7-2.4,6.8-.1.9-.4,1.7-.9,2.3,0,.7-.3,1.5-.9,2.3v4.4c.1.2.2.4.2.6,0,1.4-.8,4-2.5,7.8h-.3c0-.2,0-.3-.2-.3-.8,2.9-1.4,4.7-1.8,5.3h-.1c-.1-.6-.3-.8-.4-.8-.4,0-.8.8-1.1,2.3h-1c0,.1,0,0,0,0,.4-.8.6-1.9.6-3.3s0-1.7-.2-2.7h.2v.5h.2v-1.8c.3-2.5.6-4.6,1-6.5h-.1l-.5.3c0-.1-.1-.2-.1-.3.3-.7.6-2.3.9-4.9l2-8.3v-3.1c0-1,1.6-6.2,4.9-15.6,0-.4.4-2,1.2-4.7,0-.4.2-1,.6-1.7,0-.6.4-1.9,1.3-3.9,0-1,.3-1.9.9-2.7.2-.3.2-.5.2-.7q-.2,0-.2-.2h0c.6-2.3,1-3.5,1-4l-1.1.2c-2.4.8-3.9,1.2-4.5,1.3,0,.5-1.2.8-3.6,1.2-1.1,0-2.9-.3-5.2-.7-1.8,0-2.7-.4-2.7-1.4v-1h-.2c-.3.2-.6.3-.9.4h-1c0-.1.6-.3,1.7-.7l.3-.5c-3,0-4.5-.2-4.4-.5,3.4-.5,7-1.7,11-3.7.6-.3,1-.5,1.2-.5h2.5c.7-.4,2.5-.8,5.2-1.2,1.1-.8,2-1.3,2.8-1.4h3c.6-.1,1.5-.5,2.5-1.1v-.2c-.1,0,0-.6,0-.6.2.3.4.4.6.4.5-.1.8-.4.8-.8v-2c.1-.3.2-.5.3-.5M371.7,364.2l1.3-.2v.5c.1,0,.1.1.1.1,0,.1-.3.4-.8.9-.5,0-.8-.2-.8-.8h0c.2-.3.2-.5.2-.6M378.9,359.1h.3v-.3h-.3v.3ZM394.5,383.3h.1v-.2h-.1v.2ZM397.4,350.2h.5s.1.3.3.8c-.2.5-.3.7-.5.7h-.2c-.4,0-.6-.3-.8-.8,0-.5.2-.7.7-.8M399.8,347c.3,0,.5.2.5.3h0c0,.2-.1.4-.3.5h-.3s0-.1-.1-.3c.1-.3.2-.5.3-.5M402,362.3c0,.2,0,.3-.1.5h.1l.2-.2c0-.1-.1-.2-.1-.3h-.1ZM404.3,350.6h.2c.1,0,.2,0,.3.3h0c0,.1-.1.4-.1.4h.1-.2c0,.1-.1.2-.1.2-.1,0-.2,0-.3-.3v-.6h.1ZM425.4,351.2h.2c0-.1-.2-.1-.2-.1h0Z" fill="#c40606"/>
      <path d="M442.3,350.1h.2c0,.6-.6,2.7-1.8,6.2,0,.3,0,1.1-.3,2.4,0,0,.2.2.4.6-.3,1.1-.5,2.1-.6,3h0l.3-.2c.1,0,.2.1.3,0v.3c-1.3,3.8-2,6.1-2,6.9,0,0,.2.1.4.4v.3c-.6,2.1-1,3.7-1,4.7.1.8.2,1.4.2,1.6-.2,1.2-.4,1.9-.5,2.1,0,.8.1,1.4.1,1.9v.7c0,.4-.6,1.3-1.9,2.6,0,1.8-.9,5.9-2.7,12.3-.5,1.4-1.5,3.1-2.8,5-.7.7-1.5,2.1-2.3,4.3-1.3,1.7-3.6,3.1-6.9,4.3l-1.3.2c-5.1.7-8.8-.5-11-3.8-2-2.5-3.2-5.2-3.6-8,0-1.3,0-2.3.1-3.1v-1.5c.1-2.6.2-4.9.2-6.9,0-3,1.4-6.7,4-11,.5-1.2,1.1-2.9,1.7-5.1,0-.5-.1-.9-.1-1.3v-.3c.3-1.1.5-1.9.5-2.3.2-.1.3-.4.4-.8v-1.3c0-.9.5-1.6,1.3-2.1.6-.8,1.3-1.4,2.3-1.9.8-1.1,1.5-1.8,2.3-1.9.3.2.8.4,1.4.4.2-.4.5-.8.9-1.1.2,0,.3.3.3.7v.3h.3c1-1.8,1.8-2.7,2.2-2.8h0c0,.8-.4,2.2-1.3,4.2-.2.9-.2,1.4-.2,1.7s0,.9.2,1.4c0,.6-.8,2.3-2.3,5.1-.2.2-.3,1.2-.4,3-.5,0-1.1,1.3-1.8,3.8,0,1.1-1,4.9-2.9,11.4,0,.2-.3.9-.8,2-.3,1.4-.6,3.3-.8,5.8,0,.3.3,1.7,1,4.2v.6c0,.1,0,.5-.2,1l.6-.2c.3.3.5.4.6.4.4-.5.8-.7,1-.7h.1c.1,0,.2,0,.2.2s0,.4-.1,1c0,.9.9,1.2,2.7.9h.1c.4-.3.7-1,.9-2,.6-1.3,1.3-2.3,2.3-3,.9-1.6,1.3-2.6,1.3-2.9v-1.3c.3-1.6.7-2.4,1.3-2.5s.6-1.3.8-3.7c.3-.6.5-1.9.7-3.9.5-.8,1.1-2.3,1.5-4.7.2-.4.8-1.1,1.6-2,.5-1.5.7-2.8.7-3.9v-.5c0-.2-.1-.5-.3-1,.9-2.2,1.6-3.9,2-5.1,1.2-.8,1.9-1.9,2.2-3.1,0-.6.4-1.4,1.1-2.1,0-.7.3-1.1.8-1.4.6,0,1.6-1.9,2.8-5.4h.3v.5c0,.6-.3,1.4-.6,2.7h0c0,.1.1.1.1.1.5-1.1,1.1-2.5,1.9-4.3.3,0,.6-.7.8-1.9l.5-.4.6.2ZM414.7,386c0,.2,0,.3-.1.5h.3v-.5h-.2ZM419.2,355.2c.8-.1,1.2.1,1.2.8s-.4,1-1.1,1.1h-.2c-.2-.5-.3-1-.3-1.4s.2-.4.4-.5M420.9,366.1h.1v-.2h-.1v.2ZM423.1,353.7h.6v.5c.1,0,.1.2.1.2l-.6.2h-.2v-.5h-.1c0-.3.1-.4.2-.4" fill="#c40606"/>
      <path d="M440.1,376.2h.3c.2,0,.3,0,.3.2v.4c0,.2,0,.3-.3.3h-.4v-.6c-.1-.2,0-.3.2-.3M465.4,346.5c1,0,2.8-.1,5.5-.4,2.8.3,5.2.8,7.4,1.7,2.9,1.7,4.5,2.9,4.7,3.6.3,0,.6.2,1,.9.9.4,1.5,1.2,1.7,2.4.5,2,.8,3.3.8,3.8,0,2.4-1.9,6.2-5.5,11.5l-5.8,5.9c-.1.3-1,.9-2.4,1.8,0,.4-1.2,1.2-3.4,2.3-.3.2-.4.4-.4.4,1.3.6,2.9,1.7,4.9,3.1.4,0,.8.1,1.1.6.2,0,.8.6,1.6,2.1.1,0,.6.5,1.4,1.7.4,0,1.2.1,2.4.6,1.1-.2,1.9.2,2.3,1.2.3.4,1,.9,1.9,1.5,0,.6.1.9.1,1-.2.1-.3.2-.4.2h0c0,.4.9,1.1,2.4,2.2v.3c0,.2-.4.3-1.2.5,0,.6.5,1.1,1.5,1.5,0,.3.6.9,1.9,1.6.4.8.7,1.3.9,1.5.4,0,.9.3,1.5,1.1h-.7c0-.1-1-.8-2.9-1.9-2-2-3.8-2.9-5.4-2.6,0,0,0-.1-.3-.1h0c.4-.2.5-.3.5-.4-1.1.2-2.1-.1-3-.8-.5-.4-1.1-.6-1.9-.6,0-.2,0-.4-.3-.3h-.1v.5h-.5c-.9-1.1-2.8-2.4-5.5-3.8-.6-.7-1.6-.9-3.1-.7-1.2-.3-2.2-1-3.1-2-.2,0-.7-.2-1.6-.8-.2,0-1.4-.7-3.6-2.2-1.1-.5-2-.7-2.5-.6h-.4c-.3.2-.9,1.2-1.7,3-.4,0-.6.8-.6,2.1v1l.4,1.2h0c0,1-.8,2.9-2.4,5.8-.2,0-.5,0-.8-.1-.9,2.7-1.5,4.1-1.7,4.2-.4-.5-.7-.7-.8-.6-.5,0-.7.3-.7.8s-.9,2.4-2.7,5.1c-.6,1.8-1,2.7-1.1,2.7v-.5c-.1-.2.8-2.7,2.6-7.3l.3-1.3c-.2-.5-.2-1.2-.2-2h.3c-.3-.7-.4-1.2-.4-1.4,0-.4.2-2.2.6-5.3l-.3.2h-.4v-.2c.4-1.8,1.2-4.4,2.5-7.8l.3-1.8c-.8-.2-1.6-.6-2.3-1.3v-.9c.1,0,.1-.9.1-.9v-.3c-1.8-.2-2.8-.4-2.8-.5,0,0,.2,0,.4-.2.8,0,1.4,0,1.9-.2h.5c.1,0,.3-.2.4-.5-2.4-.4-4.2-.9-5.5-1.7h.4c1.3.3,3,.3,5.1,0h0c0-.3,0-.4.1-.4v-.6c-.1,0-.1-.5-.1-.5,0-.7.5-1.3,1.4-1.7l.4-.6h0c-.4-.5-.5-.9-.5-1.2s.1-.3.3-.3c0,.4.5.6,1.4.7v-.7c0-.7-.4-1.7-1.2-3v-.5h.4c1.2,2,2.1,3,2.8,2.9.4-.9.7-2.6.9-5.1,0-.4.2-.9.7-1.5v-.8c0-.7.3-1.4.7-2.1,0-.1,0-.4-.3-.7.8-1.7,2.4-3.2,4.8-4.4,1.4-.3,2-.6,2-.9h0c-.4,0-.7,0-.8-.1l-1.8.5c-.9,0-1.7-.1-2.5-.3v-.3l.3-.4h-.8c-1.1.6-2.6,1-4.5,1.4h-.9v-.4c.4,0,.6-.3.8-.6-.4-.3-.5-.5-.5-.6-3,1.1-5.1,2.1-6.2,2.9-.8.8-1.4,1.2-1.9,1.3s-.4,0-.5,0c-1.5,1.1-2.4,1.6-2.6,1.6v-.4c6.5-4.5,10.6-6.9,12.2-7.1v-.2s1.1-.6,3.4-1.9h.1c0,.2-.3.4-1,.6h0c0,.1.7.2.7.2.9-1,2.5-1.6,4.6-1.9,1.5-.6,3.4-1,5.5-1.5h0c-.3,0-.4-.1-.4-.3v-.7ZM442.4,379.4c.5,0,.9.1,1.2.6v.4c-.6.4-1,.7-1.2.7h-.3c-.1,0-.3,0-.4-.3v-1l.7-.4h0ZM446.7,369.4c.6.2.9.5.9,1v.4l-1,.3h-.5c-.3-.5-.4-.8-.4-1,.5-.4.8-.6,1-.6M447.7,365.3h.4c.2,0,.3,0,.3.2v.4c0,.2,0,.3-.3.3h-.3c-.2,0-.3,0-.3-.2l.2-.7h0ZM447.3,398h.1v.5h-.1v-.5ZM456.3,356.2h.4v.5h.1c0,.1-.7.3-.7.3v-.6c0-.2,0-.3.2-.3M457.7,351.8h.7v-.2h-.7v.2ZM469.1,353h-.8c-1.3.3-1.9.6-1.9.9v.9c.2.7.4,1.7.4,2.9s-.4,2.5-1.1,2.6c-.1.7-.3,1.1-.7,1.1v.6c0,.2-.7,1.5-1.9,4.1v.4s0,.6.1,1.6c-.1.5-.8,1.7-1.9,3.4-.2.4-.3,1.1-.3,1.8.6.2,1.3.2,2.2,0,2.1-.6,4.3-1.6,6.6-2.7,0-.5.5-1.1,1.4-1.8.8-.4,1.7-1,2.7-1.9,1-.1,1.9-1,2.6-2.7.3-.5.9-1.7,1.7-3.8v-1.1c-1.2-3.5-2.8-5.7-4.9-6.4-.5,0-.7-.1-.7-.3v-.3s-.4,0-1.1-.2c-1.2.5-2,.8-2.3.8M466,355.3c0,.1.1.3.1.3h.1v-.4h-.3,0ZM473.4,367.5v.3c.2-.1.3-.2.4-.2h0c0-.1-.4,0-.4,0h0ZM478.8,371.6h.1v-.3h-.1v.3ZM479.9,370.3v.3c-.1,0-.1.1-.1.1h.1s0-.2.1-.4h-.1Z" fill="#c40606"/>
      <path d="M476.4,387.4h.5q.2,0,.2.1h0c0,.2-.1.4-.3.5h-.3v-.6h-.1ZM510.2,338.1h.1q.2,0,.2.2v.2c-.2.8-.2,1.2-.2,1.3v.3c0,.2.3.3.7.2l.8-.7h.9c.8-.2,1.4-.3,1.8-.4h.2l3.7.5c0,.1,0,.2.2.2h.3c.2-.3.9-.8,2.1-1.5,0-.2.2-.4.6-.5,2.7-.4,4-.4,4,0v.2s0,.1,0,.3h.9l.6-.2h.8c.4-.2.7,0,.9.3,0,0-.3.2-.6.5,0,.2.2.4.2.5l1.6-.2c3,0,4.7-.1,5-.2v.2l-.8.3-4.3.6c-1.2.2-2.2.6-3,1.2l-.3-.2h-.2c0,.6-1.2,1.2-3.6,1.8-.3.3-.5.4-.5.5s0,.2,0,.3h-.3l-.8.4c-.5,0-1.6.2-3.3.4-2.1.3-3.4.9-3.9,1.7-.6.3-1.3.5-2.2.7h-.6c-.9,1.3-1.4,2.5-1.4,3.7s-.5,1.1-1.4,1.9c0,.8-.7,2-1.9,3.8-.4.9-.6,1.6-.6,2.2v.8c1.6.2,2.4.4,2.5.5h.6c0-.4.5-.7,1.4-1.2l.2-.6,1.9-.3,1.4-.3c.4.5.7.8,1,.8.5-.2.8-.3,1-.4h.2c.5,0,.7,0,.7.2v.2l-.2.4h0c0,.4,1.5.4,4.6,0,0,0,0,.1,0,0,.4-.1.8-.2,1-.3h.9c0-.1,0,0,0,0-3.6.9-5.8,1.5-6.4,1.7,0,.3-.4.5-1.3.7,0,.4-.6.8-1.7,1.4-1.1.4-1.7.7-2,1.1,0,.1.1.2.1.3-.4.3-.9.5-1.5.6h-.2c-.5.1-1,.1-1.5.1-2.6.6-3.9,1.1-3.9,1.6l-.9.4h-.2c-.9,0-1.4.5-1.7,1.3,0,.1-.5,1.2-1.5,3.3-.6,2.1-1.3,3.5-2.2,4.2-.2,0-.4.4-.5,1.2-.5,0-.9.7-1.4,1.8-.3,0-.5.4-.7,1v.5c.1,0,0,.8,0,.8,2.6-.5,3.9-1,3.9-1.4.4-.3.8-.5,1.3-.5h1.4c0,.2,0,.3.2.3v-.2h.9c.3,0,2.2-.9,5.7-2.5l6.4-2,6.1-.2h.3c.2-.5,1.2-1,2.8-1.6.3-.6,1-.9,2-1.1h1c2.9-.6,4.3-.5,4.3.1-.2,0-.2.1-.2.3.2,0,.5,0,.8.1,1-.2,1.8-.4,2.4-.5s1,0,1.3.4l-.7.7h0c0,.4.5.5,1.4.6,1.2-.3,1.9-.4,2.2-.4,1.3-.2,2.4,0,3.2.3h0c.8-.2,1.4-.3,1.8-.4v.2c-.5.1-.8.3-.8.4h-.9c-1.5.2-3.2.4-4.9.6-.9.2-1.7.4-2.5.5-1.1.7-1.8,1-2.1,1.1h0c.3,0,.5-.2.5-.4h-.5c0,.5-2.1,1.3-6.3,2.6v.2c.3,0,.5,0,.5.2h0c-1.6.3-4.8,1.2-9.6,2.6-1,.1-1.5.4-1.5.9-1.8,1.1-3.4,1.8-4.9,2.1h-.8c-4.6,1.5-7.7,2.6-9.2,3.4,0,.1-.8.4-2.4.9-1,.6-1.8.9-2.2,1l-1.4.2c-.3,0-.6.3-.8.7l-1.5.2c-1,.1-1.5.6-1.5,1.2l-.8.9h-.1c-.2,0-.2-.2-.2-.6h-.2c-.7.1-1.2,1.2-1.5,3.2l-1.4,2.3c-.3,0-.6.8-.9,2.4h-.2c0,.1-.1.2-.1.2v-.3c.6-2.1,1.4-4.4,2.4-6.9,0-.4.1-.8.1-1.1v-1.1c-3.1,0-4.7-.3-4.7-.8-.1,0-.2,0-.3-.3v-.8c0-.4,0-.7-.3-.9l-.6.2-1.3.2h0c0-.2.6-.5,1.7-.9,0-.2.1-.2.3-.3h0c-1.9,0-3.4-.1-4.6-.4h0c3.1-.6,6.6-1.9,10.6-4.2.8-2.2,1.7-4.4,2.8-6.5.1-.8.6-1.9,1.3-3.4v-2c.6-1.5.9-2.3.9-2.5h0c0-.3-.8-1-2.1-2.1v-.3c0-.4,0-1,.1-1.9-.6-.1-.9-.3-.9-.4h0c0-.1.9-.2.9-.2,0-.1,0-.3.2-.5-.5-.5-1.4-1-2.8-1.3v-.3h.7c.7.4,2,.5,4,.2s1.5-.3,3.3-.7c.5-1.3.8-2.3.8-2.9h0c0-.1-.1,0-.1,0-.8.8-1.2,1.2-1.3,1.2v-.3c1.9-2.3,2.9-4.3,2.9-6.1h-1.1c-.9.1-1.8,0-2.7-.5-1.9,0-2.8-.5-2.8-1.5-.1-.5-.2-.9-.2-1h-.3c-.2,0-.3.1-.5.2h-.5c.8-.7,1.3-1.1,1.3-1.2-1.1-.1-1.9-.2-2.4-.1h-.9c0,.1-.6.1-.6.1,0-.2.7-.5,2.1-.8,0-.2.7-.5,2.1-.9,2.1-1.6,3.7-2.5,4.7-2.6s.8,0,1.4.1c2.4-.3,3.9-.9,4.6-1.8.7-.5,1-1,1-1.5h.8c0-.1.7.9.7.9h.3c.3-1.3.8-2,1.4-2.1.3.2.5.3.8.2v-.2c-.1,0-.1-.7-.1-.7.6-.3,1-.5,1.3-.5M479,389.5h.5c.6-.1.9,0,.9.1v.3c-.3.5-.6.8-1,.8h-.3c0-.1,0-.4-.2-.7.2-.3.2-.5.2-.6M486,384.1h0c0,.1.6,0,.6,0h0c-.2,0-.2-.1-.2-.2-.2,0-.3.2-.3.2M487.1,348.9h.2q.2,0,.2.2v.3q0,.2-.2.3h-.3v-.5q-.1-.2.1-.3M487.1,361h.2c.1,0,.2,0,.3.3v.2q0,.2-.2.3h-.2q-.2,0-.2-.2v-.6h.1ZM488.6,364c.9-.1,1.4,0,1.4.6s-.3.4-.8.8c-.5,0-.8-.1-.8-.6l.2-.8h0ZM490.6,350.5c.4,0,.6,0,.6.3v.3c-.3.6-.6.9-1,.9h-.1c-.2,0-.3-.2-.4-.6.1-.5.5-.9,1-.9M494.7,345.4s0,.2-.1.4h.2c0-.1,0-.2.1-.4h-.2ZM494.5,360.9c0,.1,0,.2.2.2v-.2h-.2ZM503.8,366.5h0c0,.1.1,0,.1,0,.2,0,.3-.2.3-.2h0c0-.1-.1,0-.1,0-.2,0-.3.2-.3.2M503.8,385.7h.2c0-.1-.2-.1-.2-.1h0ZM505.8,337.6h.7c.5.2.8.6.8,1l-.4.8c-.8.1-1.3-.3-1.5-1.4h0c0-.2.1-.4.3-.5M507.4,341h.2v-.3h-.2v.3ZM509.8,335.6h.3s0,.2.2.4v.3l-.6.2h-.2c0-.1,0-.3-.1-.4.1-.3.2-.5.3-.5M511.4,337h.1c.1,0,.2,0,.3.3v.2q0,.2-.2.3h-.2q-.2,0-.2-.2v-.3c0-.2.1-.2.2-.3M515.9,361.8h0v.2h0v-.2ZM526.6,341.9h0q0,.2-.2.3h0q0-.2.2-.3M531.4,374h.3v-.2h-.3v.2Z" fill="#c40606"/>
    </g>
    <g id="Interactive">
      <rect x="295" y="442.7" width="2" height="21.9" fill="#c40606"/>
      <polygon points="303.9 442.7 306.6 442.7 313.4 460.1 313.4 442.7 315.2 442.7 315.2 464.7 313.1 464.7 305.8 445.7 305.8 464.7 303.9 464.7 303.9 442.7" fill="#c40606"/>
      <polygon points="325.6 444.5 321 444.5 321 442.7 332.2 442.7 332.2 444.5 327.6 444.5 327.6 464.6 325.6 464.6 325.6 444.5" fill="#c40606"/>
      <polygon points="338 442.7 347.9 442.7 347.9 444.5 340 444.5 340 452.5 346.5 452.5 346.5 454.3 340 454.3 340 462.9 347.9 462.9 347.9 464.7 338 464.7 338 442.7" fill="#c40606"/>
      <path d="M353.8,442.7h5.2c3.8,0,5.5,1.6,5.5,5.2v.9c0,2.7-.9,4.2-3.1,4.8h0c2.2.5,3.1,2,3.1,4.8v3.4c0,1,0,2,.3,2.8h-2c-.2-.7-.3-1.4-.3-2.8v-3.5c0-2.7-1.1-3.7-3.9-3.7h-2.8v10h-2v-21.9h0ZM358.6,452.9c2.7,0,3.9-1.1,3.9-3.7v-1c0-2.6-1.1-3.7-3.6-3.7h-3.2v8.3h2.9Z" fill="#c40606"/>
      <path d="M379.6,459.8h-6.5l-1.1,4.8h-1.9l4.9-21.9h2.7l5,21.9h-2l-1.1-4.8ZM379.2,458l-2.9-12.9-2.8,12.9h5.7,0Z" fill="#c40606"/>
      <path d="M388.1,459.4v-11.4c0-3.5,2-5.6,5.4-5.6s5.4,2,5.4,5.6v1.8h-1.9v-1.9c0-2.4-1.3-3.7-3.5-3.7s-3.4,1.3-3.4,3.7v11.6c0,2.4,1.3,3.7,3.4,3.7s3.5-1.3,3.5-3.7v-2.6h1.9v2.5c0,3.5-1.9,5.6-5.4,5.6s-5.4-2.1-5.4-5.6" fill="#c40606"/>
      <polygon points="408.6 444.5 404 444.5 404 442.7 415.3 442.7 415.3 444.5 410.6 444.5 410.6 464.6 408.6 464.6 408.6 444.5" fill="#c40606"/>
      <rect x="421" y="442.7" width="2" height="21.9" fill="#c40606"/>
      <polygon points="428.8 442.7 430.9 442.7 435.2 462.1 439.4 442.7 441.3 442.7 436.4 464.7 433.8 464.7 428.8 442.7" fill="#c40606"/>
      <polygon points="447.1 442.7 457 442.7 457 444.5 449.1 444.5 449.1 452.5 455.6 452.5 455.6 454.3 449.1 454.3 449.1 462.9 457 462.9 457 464.7 447.1 464.7 447.1 442.7" fill="#c40606"/>
    </g>
  </g>
  <g id="body">
    <path d="M444.6,204.2l-81.8,49.8-81.9-49.8c17.2-5.1,35-10.9,47.6-24,1.6-2.9,2.7-5.5,3.8-8.8l1.2-22-.8-2.2-5.6-13.3c-1.5-3.3-2.1-6.2-2.4-9.2-.7-5.5-4.4-7.7-10-7.8,3-2.5,6.3-2.8,9.7-2.5l7,.7.2-16c0-5.6,2.5-11.4,5.3-16.3,5.3-9.3,15.5-13.9,26-13.9,19.4,0,30.3,13.5,31.7,32.3.2,2.8.6,5.6.3,8.2l-.6,5.6,7.1-.6c3.4-.3,7.1,0,9.6,2.7-5.9-.3-9.3,2.4-9.9,7.7-.4,3.2-1.1,6.5-2.2,9.2l-4.9,12.8-.4,2.6v22c1.1,7.1,5.6,12.4,11.6,16.4,11.9,8,25.5,12.7,39.5,16.4h-.1Z" fill="#c40606"/>
  </g>
  <g id="hexagon">
    <path d="M455.8,94.7l-92.8-58.1-93.3,58.2v116.6l93.2,56.8,92.9-56.7v-116.8h0ZM444.6,204.2l-81.8,49.8-81.9-49.8v-102.2l14.1-9.2,67.8-42.2,67.3,41.9,14.5,9.6v102.1h0Z" fill="#c40606"/>
  </g>
  <g id="tentacle-6">
    <path d="M387.6,164.8l1,9.3c3.5-2.3,11.2-3.5,14.1-2.4,2.2.8,4.3,2.4,6.3,4.7,5.2,5.6,13.7,4.6,20.5-.1-6.1.8-12.5.5-16.2-5-2-3-3.5-6.8-7.4-8-2.5-.8-5.2-.8-7.9-.6-1.5.1-3.1.3-4.7.4h-5.6s0,1.7,0,1.7Z" fill="#c40606"/>
  </g>
  <g id="tentacle-5">
    <path d="M387.7,151v12.1l5.6-.2c4-2.1,8.7-2.9,12.1-6.1,10.3-9.7,6.6-24.4,19.5-23.9l10.8.8c-4.7-4.4-10.7-5.5-17.2-5.6-12.8,0-13.8,21.7-24.4,22.9h-6.4Z" fill="#c40606"/>
  </g>
  <g id="tentacle-4">
    <path d="M392,144.9s5.9-1.2,9.8-2c6.4-1.3,10.4,1.4,10.5,1.4,3.5,2.9,6.9,9.1,12.4,13.2,5,3.7,16.7,3.4,18.7-4.3-3.7,2.2-6.1,4-9.9,2.8-6.4-2-8.9-11.2-8.9-11.2-3.6-11-18.3-12.1-18.3-12.1h-12.6l-1.6,12.1h-.1Z" fill="#c40606"/>
  </g>
  <g id="tentacle-3">
    <path d="M343.2,165.4l-2.9,10.1c-3.5-2.3-14.5-4.8-17.4-3.7-2.2.8-4.3,2.4-6.3,4.7-5.2,5.6-13.7,4.6-20.5-.1,6.1.8,12.5.5,16.2-5,2-3,3.5-6.8,7.4-8,2.5-.8,5.2-.8,7.9-.6,1.5.1,3.1.3,4.7.4l.7.2,10.1,2Z" fill="#c40606"/>
  </g>
  <g id="tentacle-2">
    <path d="M340.3,151.1l-.8,12.1-7.3-.2c-4-2.1-8.7-2.9-12.1-6.1-10.3-9.7-6.6-24.4-19.5-23.9l-10.8.8c4.7-4.4,10.7-5.5,17.2-5.6,12.8,0,13.8,21.7,24.4,22.9h8.9Z" fill="#c40606"/>
  </g>
  <g id="tentacle-1">
    <path d="M333.5,144.9s-5.9-1.2-9.8-2c-6.4-1.3-10.4,1.4-10.5,1.4-3.5,2.9-6.9,9.1-12.4,13.2-5,3.7-16.7,3.4-18.7-4.3,3.7,2.2,6.1,4,9.9,2.8,6.4-2,8.9-11.2,8.9-11.2,3.6-11,18.3-12.1,18.3-12.1l15.9.4,3,12.5-4.6-.7Z" fill="#c40606"/>
  </g>
  <g id="Eye-right">
    <path d="M348.2,130.1c-3.5,1.3-7.3.5-10.1-2.1,3.4-.2,6.6.2,10.1,2.1Z" fill="#fff"/>
  </g>
  <g id="Eye-left">
    <path d="M385.2,128c-3,2.9-6.7,3.3-10.1,2.2,3.3-1.9,6.6-2.4,10.1-2.2Z" fill="#fff"/>
  </g>
</svg>